<?xml version="1.0" encoding="UTF-8" standalone="no"?>
<svg
   xmlns:dc="http://purl.org/dc/elements/1.1/"
   xmlns:cc="http://creativecommons.org/ns#"
   xmlns:rdf="http://www.w3.org/1999/02/22-rdf-syntax-ns#"
   xmlns:svg="http://www.w3.org/2000/svg"
   xmlns="http://www.w3.org/2000/svg"
   xmlns:sodipodi="http://sodipodi.sourceforge.net/DTD/sodipodi-0.dtd"
   xmlns:inkscape="http://www.inkscape.org/namespaces/inkscape"
   width="170"
   height="25"
   viewBox="0 0 44.979166 6.6145835"
   version="1.1"
   id="svg8"
   inkscape:version="1.0.1 (3bc2e813f5, 2020-09-07)"
   sodipodi:docname="header.svg">
  <defs
     id="defs2" />
  <sodipodi:namedview
     id="base"
     pagecolor="#ffffff"
     bordercolor="#666666"
     borderopacity="1.0"
     inkscape:pageopacity="0.0"
     inkscape:pageshadow="2"
     inkscape:zoom="2.8"
     inkscape:cx="279.41498"
     inkscape:cy="88.670575"
     inkscape:document-units="mm"
     inkscape:current-layer="text835"
     inkscape:document-rotation="0"
     showgrid="false"
     inkscape:snap-page="true"
     units="px"
     inkscape:window-width="1920"
     inkscape:window-height="1017"
     inkscape:window-x="-8"
     inkscape:window-y="-8"
     inkscape:window-maximized="1" />
  <metadata
     id="metadata5">
    <rdf:RDF>
      <cc:Work
         rdf:about="">
        <dc:format>image/svg+xml</dc:format>
        <dc:type
           rdf:resource="http://purl.org/dc/dcmitype/StillImage" />
        <dc:title></dc:title>
      </cc:Work>
    </rdf:RDF>
  </metadata>
  <g
     inkscape:label="Layer 1"
     inkscape:groupmode="layer"
     id="layer1">
    <g
       aria-label="salah sheikh"
       id="text835"
       style="font-style:normal;font-weight:normal;font-size:8.46667px;line-height:1.25;font-family:sans-serif;fill:#356697;fill-opacity:1;stroke:none;stroke-width:0.264583">
      <path
         d="m 3.1919348,2.5295656 c 0.016933,-0.033867 0.042333,-0.084667 0.042333,-0.1100667 0,-0.1947334 -0.8043337,-0.4148668 -1.3208005,-0.4148668 -0.91440039,0 -1.49860063,0.6096002 -1.49860063,1.3800672 0,0.4910669 0.24553344,0.7874003 0.49953354,0.9567337 0.55880019,0.3725335 1.38853389,0.3725335 1.38853389,0.8636003 0,0.3048002 -0.2370668,0.4233336 -0.5164669,0.4233336 -0.5249335,0 -1.17686711,-0.3725335 -1.21073379,-0.3725335 -0.0338667,0 -0.0508,0.033867 -0.0677334,0.0762 L 0.3217337,5.8146336 c -0.008467,0.033867 -0.0423333,0.084667 -0.0423333,0.1100667 0,0.2286001 0.96520035,0.5503336 1.59173395,0.5503336 0.897467,0 1.4478006,-0.5842003 1.4478006,-1.3631339 0,-0.4910669 -0.2370668,-0.8128003 -0.5672669,-1.0329338 C 2.1505344,3.6810327 1.3885341,3.7148994 1.3885341,3.2576992 c 0,-0.2878667 0.2370668,-0.4064001 0.5588003,-0.4064001 0.5418668,0 0.9567337,0.2201334 0.9821337,0.2201334 0.00847,0 0.0508,-0.033867 0.067733,-0.0762 z"
         style="font-style:normal;font-variant:normal;font-weight:normal;font-stretch:normal;font-size:8.46667px;font-family:'ITC Officina Sans Std';-inkscape-font-specification:'ITC Officina Sans Std';fill:#356697;fill-opacity:1;stroke-width:0.264583"
         id="path837" />
      <path
         d="m 7.2728587,6.1787004 c 0.042333,-0.016933 0.0762,-0.042333 0.0762,-0.0762 0,-0.1693334 -0.2201334,-0.2794001 -0.2201334,-1.1006671 V 3.367766 c 0,-0.8805337 -0.3979335,-1.3631339 -1.4562673,-1.3631339 -0.6519336,0 -1.4901339,0.2032001 -1.4901339,0.3979335 0,0.033867 0.00847,0.067733 0.0254,0.1016 l 0.1693334,0.5164669 c 0.00847,0.033867 0.042333,0.084667 0.084667,0.084667 0.1100667,0 0.5757336,-0.2540001 1.0498671,-0.2540001 0.5334002,0 0.6011336,0.2455334 0.6011336,0.6265336 v 0.2624667 c -0.668867,0 -2.2098009,0 -2.2098009,1.4308673 0,0.795867 0.4910669,1.3038672 1.2700005,1.3038672 0.6350003,0 0.9313337,-0.3386668 1.1006671,-0.5080002 0.042333,0.2116667 0.1693334,0.5080002 0.2455334,0.5080002 0.033867,0 0.0762,-0.0254 0.1100668,-0.033867 z M 6.1129249,5.3659001 c -0.1016001,0.1016 -0.3217335,0.3217334 -0.6350003,0.3217334 -0.3217334,0 -0.5588002,-0.2455334 -0.5588002,-0.5757335 0,-0.745067 0.9821337,-0.6773336 1.1938005,-0.6773336 z"
         style="font-style:normal;font-variant:normal;font-weight:normal;font-stretch:normal;font-size:8.46667px;font-family:'ITC Officina Sans Std';-inkscape-font-specification:'ITC Officina Sans Std';fill:#356697;fill-opacity:1;stroke-width:0.264583"
         id="path839" />
      <path
         d="m 9.9398509,5.4759668 c -0.00847,-0.033867 -0.033867,-0.0508 -0.067733,-0.0508 -0.0508,0 -0.1608667,0.0762 -0.3302001,0.0762 -0.2370667,0 -0.2370667,-0.2370668 -0.2370667,-0.5080002 V 0.37903143 c 0,-0.14393339 -0.016933,-0.17780007 -0.084667,-0.17780007 -0.016933,0 -0.093133,0.0254 -0.1185334,0.0254 L 8.3904503,0.37056476 c -0.1016001,0.0254 -0.1608667,0.0254 -0.1608667,0.15240006 V 4.8409665 c 0,0.7789337 0,1.6340674 1.0414004,1.6340674 0.4064001,0 0.855134,-0.1185334 0.855134,-0.2370668 0,-0.0254 -0.0085,-0.0254 -0.01693,-0.067733 z"
         style="font-style:normal;font-variant:normal;font-weight:normal;font-stretch:normal;font-size:8.46667px;font-family:'ITC Officina Sans Std';-inkscape-font-specification:'ITC Officina Sans Std';fill:#356697;fill-opacity:1;stroke-width:0.264583"
         id="path841" />
      <path
         d="m 13.851448,6.1787004 c 0.04233,-0.016933 0.0762,-0.042333 0.0762,-0.0762 0,-0.1693334 -0.220133,-0.2794001 -0.220133,-1.1006671 V 3.367766 c 0,-0.8805337 -0.397934,-1.3631339 -1.456267,-1.3631339 -0.651934,0 -1.490134,0.2032001 -1.490134,0.3979335 0,0.033867 0.0085,0.067733 0.0254,0.1016 l 0.169333,0.5164669 c 0.0085,0.033867 0.04233,0.084667 0.08467,0.084667 0.110067,0 0.575733,-0.2540001 1.049867,-0.2540001 0.5334,0 0.601134,0.2455334 0.601134,0.6265336 v 0.2624667 c -0.668867,0 -2.209801,0 -2.209801,1.4308673 0,0.795867 0.491067,1.3038672 1.27,1.3038672 0.635,0 0.931334,-0.3386668 1.100667,-0.5080002 0.04233,0.2116667 0.169334,0.5080002 0.245534,0.5080002 0.03387,0 0.0762,-0.0254 0.110066,-0.033867 z M 12.691515,5.3659001 c -0.1016,0.1016 -0.321734,0.3217334 -0.635001,0.3217334 -0.321733,0 -0.5588,-0.2455334 -0.5588,-0.5757335 0,-0.745067 0.982134,-0.6773336 1.193801,-0.6773336 z"
         style="font-style:normal;font-variant:normal;font-weight:normal;font-stretch:normal;font-size:8.46667px;font-family:'ITC Officina Sans Std';-inkscape-font-specification:'ITC Officina Sans Std';fill:#356697;fill-opacity:1;stroke-width:0.264583"
         id="path843" />
      <path
         d="m 18.211775,3.3423659 c 0,-0.7366003 -0.2032,-1.3377338 -1.100667,-1.3377338 -0.601133,0 -0.9398,0.2963334 -1.1684,0.4826002 V 0.37903143 c 0,-0.14393339 -0.01693,-0.17780007 -0.08467,-0.17780007 -0.01693,0 -0.09313,0.0254 -0.118533,0.0254 l -0.711201,0.14393339 c -0.1016,0.0254 -0.160866,0.0254 -0.160866,0.15240006 V 6.2125671 c 0,0.093133 0.01693,0.1185334 0.118533,0.1185334 h 0.8382 c 0.1016,0 0.118534,-0.0254 0.118534,-0.1185334 V 3.2492326 c 0.110066,-0.1016001 0.364067,-0.3556002 0.719667,-0.3556002 0.4318,0 0.474133,0.3894669 0.474133,0.7112003 v 2.6077344 c 0,0.093133 0.01693,0.1185334 0.118534,0.1185334 h 0.8382 c 0.1016,0 0.118533,-0.0254 0.118533,-0.1185334 z"
         style="font-style:normal;font-variant:normal;font-weight:normal;font-stretch:normal;font-size:8.46667px;font-family:'ITC Officina Sans Std';-inkscape-font-specification:'ITC Officina Sans Std';fill:#356697;fill-opacity:1;stroke-width:0.264583"
         id="path845" />
      <path
         d="m 24.502497,2.5295656 c 0.01693,-0.033867 0.04233,-0.084667 0.04233,-0.1100667 0,-0.1947334 -0.804333,-0.4148668 -1.3208,-0.4148668 -0.914401,0 -1.498601,0.6096002 -1.498601,1.3800672 0,0.4910669 0.245534,0.7874003 0.499534,0.9567337 0.5588,0.3725335 1.388534,0.3725335 1.388534,0.8636003 0,0.3048002 -0.237067,0.4233336 -0.516467,0.4233336 -0.524934,0 -1.176867,-0.3725335 -1.210734,-0.3725335 -0.03387,0 -0.0508,0.033867 -0.06773,0.0762 l -0.186267,0.4826002 c -0.0085,0.033867 -0.04233,0.084667 -0.04233,0.1100667 0,0.2286001 0.965201,0.5503336 1.591734,0.5503336 0.897467,0 1.447801,-0.5842003 1.447801,-1.3631339 0,-0.4910669 -0.237067,-0.8128003 -0.567267,-1.0329338 -0.601133,-0.3979335 -1.363134,-0.3640668 -1.363134,-0.821267 0,-0.2878667 0.237067,-0.4064001 0.5588,-0.4064001 0.541867,0 0.956734,0.2201334 0.982134,0.2201334 0.0085,0 0.0508,-0.033867 0.06773,-0.0762 z"
         style="font-style:normal;font-variant:normal;font-weight:normal;font-stretch:normal;font-size:8.46667px;font-family:'ITC Officina Sans Std';-inkscape-font-specification:'ITC Officina Sans Std';fill:#356697;fill-opacity:1;stroke-width:0.264583"
         id="path847" />
      <path
         d="m 28.871286,3.3423659 c 0,-0.7366003 -0.2032,-1.3377338 -1.100667,-1.3377338 -0.601134,0 -0.939801,0.2963334 -1.168401,0.4826002 V 0.37903143 c 0,-0.14393339 -0.01693,-0.17780007 -0.08467,-0.17780007 -0.01693,0 -0.09313,0.0254 -0.118534,0.0254 l -0.7112,0.14393339 c -0.1016,0.0254 -0.160867,0.0254 -0.160867,0.15240006 V 6.2125671 c 0,0.093133 0.01693,0.1185334 0.118534,0.1185334 h 0.8382 c 0.1016,0 0.118533,-0.0254 0.118533,-0.1185334 V 3.2492326 c 0.110067,-0.1016001 0.364067,-0.3556002 0.719667,-0.3556002 0.4318,0 0.474134,0.3894669 0.474134,0.7112003 v 2.6077344 c 0,0.093133 0.01693,0.1185334 0.118533,0.1185334 h 0.838201 c 0.1016,0 0.118533,-0.0254 0.118533,-0.1185334 z"
         style="font-style:normal;font-variant:normal;font-weight:normal;font-stretch:normal;font-size:8.46667px;font-family:'ITC Officina Sans Std';-inkscape-font-specification:'ITC Officina Sans Std';fill:#356697;fill-opacity:1;stroke-width:0.264583"
         id="path849" />
      <path
         d="m 32.986078,5.3743667 c -0.01693,-0.033867 -0.0508,-0.067733 -0.09313,-0.067733 -0.118533,0 -0.465667,0.2794001 -1.075267,0.2794001 -0.795867,0 -0.931334,-0.5842002 -0.931334,-1.0583338 h 2.277535 c 0.160866,0 0.194733,-0.0508 0.194733,-0.2116667 0,-1.0244671 -0.254,-2.3114009 -1.693334,-2.3114009 -1.134534,0 -1.854201,0.9313337 -1.854201,2.2775342 0,1.5578673 0.778934,2.1928676 1.896534,2.1928676 0.668867,0 1.515534,-0.2794002 1.515534,-0.4995336 0,-0.033867 -0.0085,-0.067733 -0.0254,-0.093133 z M 30.886344,3.7402994 c 0.0254,-0.2370667 0.05927,-0.948267 0.719667,-0.948267 0.5842,0 0.6096,0.6011336 0.6096,0.948267 z"
         style="font-style:normal;font-variant:normal;font-weight:normal;font-stretch:normal;font-size:8.46667px;font-family:'ITC Officina Sans Std';-inkscape-font-specification:'ITC Officina Sans Std';fill:#356697;fill-opacity:1;stroke-width:0.264583"
         id="path851" />
      <path
         d="m 35.678463,2.2670988 c 0,-0.093133 -0.01693,-0.1185333 -0.118534,-0.1185333 h -1.608667 c -0.1016,0 -0.118533,0.0254 -0.118533,0.1185333 v 0.5503336 c 0,0.093133 0.01693,0.1185334 0.118533,0.1185334 h 0.651934 v 3.2766013 c 0,0.093133 0.01693,0.1185334 0.118533,0.1185334 h 0.8382 c 0.101601,0 0.118534,-0.0254 0.118534,-0.1185334 z m 0.1524,-1.3716005 c 0,-0.38946682 -0.313267,-0.69426694 -0.694267,-0.69426694 -0.389467,0 -0.702734,0.30480012 -0.702734,0.69426694 0,0.3894668 0.313267,0.7027336 0.702734,0.7027336 0.381,0 0.694267,-0.3132668 0.694267,-0.7027336 z"
         style="font-style:normal;font-variant:normal;font-weight:normal;font-stretch:normal;font-size:8.46667px;font-family:'ITC Officina Sans Std';-inkscape-font-specification:'ITC Officina Sans Std';fill:#356697;fill-opacity:1;stroke-width:0.264583"
         id="path853" />
      <path
         d="M 39.005851,3.9858329 40.377452,2.648099 c 0.04233,-0.042333 0.0762,-0.0762 0.0762,-0.1100667 0,-0.033867 -0.0085,-0.059267 -0.04233,-0.093133 L 39.987985,2.0977654 c -0.06773,-0.0508 -0.1016,-0.093133 -0.1524,-0.093133 -0.0254,0 -0.09313,0.0508 -0.118533,0.084667 l -1.625601,1.642534 V 0.37903143 c 0,-0.14393339 -0.01693,-0.17780007 -0.06773,-0.17780007 -0.0254,0 -0.110067,0.0169333 -0.135467,0.0254 l -0.7112,0.14393339 c -0.1016,0.0169333 -0.160867,0.0338667 -0.160867,0.15240006 V 6.2125671 c 0,0.093133 0.01693,0.1185334 0.118533,0.1185334 h 0.838201 c 0.1016,0 0.118533,-0.0254 0.118533,-0.1185334 V 4.366833 h 0.01693 l 1.549401,2.0235342 c 0.0254,0.033867 0.06773,0.084667 0.1016,0.084667 0.03387,0 0.06773,-0.016933 0.1016,-0.033867 l 0.719667,-0.3979335 c 0.03387,-0.016933 0.04233,-0.042333 0.04233,-0.0762 0,-0.033867 -0.03387,-0.084667 -0.0762,-0.1270001 z"
         style="font-style:normal;font-variant:normal;font-weight:normal;font-stretch:normal;font-size:8.46667px;font-family:'ITC Officina Sans Std';-inkscape-font-specification:'ITC Officina Sans Std';fill:#356697;fill-opacity:1;stroke-width:0.264583"
         id="path855" />
      <path
         d="m 44.712381,3.3423659 c 0,-0.7366003 -0.2032,-1.3377338 -1.100667,-1.3377338 -0.601134,0 -0.939801,0.2963334 -1.168401,0.4826002 V 0.37903143 c 0,-0.14393339 -0.01693,-0.17780007 -0.08467,-0.17780007 -0.01693,0 -0.09313,0.0254 -0.118534,0.0254 l -0.7112,0.14393339 c -0.1016,0.0254 -0.160867,0.0254 -0.160867,0.15240006 V 6.2125671 c 0,0.093133 0.01693,0.1185334 0.118534,0.1185334 h 0.8382 c 0.1016,0 0.118533,-0.0254 0.118533,-0.1185334 V 3.2492326 C 42.55338,3.1476325 42.80738,2.8936324 43.16298,2.8936324 c 0.4318,0 0.474134,0.3894669 0.474134,0.7112003 v 2.6077344 c 0,0.093133 0.01693,0.1185334 0.118533,0.1185334 h 0.838201 c 0.1016,0 0.118533,-0.0254 0.118533,-0.1185334 z"
         style="font-style:normal;font-variant:normal;font-weight:normal;font-stretch:normal;font-size:8.46667px;font-family:'ITC Officina Sans Std';-inkscape-font-specification:'ITC Officina Sans Std';fill:#356697;fill-opacity:1;stroke-width:0.264583"
         id="path857" />
    </g>
  </g>
</svg>
