<svg xmlns:dc="http://purl.org/dc/elements/1.1/" xmlns:cc="http://creativecommons.org/ns#" xmlns:rdf="http://www.w3.org/1999/02/22-rdf-syntax-ns#" xmlns:svg="http://www.w3.org/2000/svg" xmlns="http://www.w3.org/2000/svg" xmlns:sodipodi="http://sodipodi.sourceforge.net/DTD/sodipodi-0.dtd" xmlns:inkscape="http://www.inkscape.org/namespaces/inkscape" width="170" height="25" viewBox="0 0 44.979166 6.6145835" id="svg8" inkscape:version="1.0.1 (3bc2e813f5, 2020-09-07)" sodipodi:docname="header.svg"><defs id="defs2"/><sodipodi:namedview id="base" pagecolor="#ffffff" bordercolor="#666666" borderopacity="1" inkscape:pageopacity="0" inkscape:pageshadow="2" inkscape:zoom="2.8" inkscape:cx="279.41498" inkscape:cy="88.670575" inkscape:document-units="mm" inkscape:current-layer="text835" inkscape:document-rotation="0" showgrid="false" inkscape:snap-page="true" units="px" inkscape:window-width="1920" inkscape:window-height="1017" inkscape:window-x="-8" inkscape:window-y="-8" inkscape:window-maximized="1"/><g inkscape:label="Layer 1" inkscape:groupmode="layer" id="layer1"><g aria-label="salah sheikh" id="text835" style="font-style:normal;font-weight:400;font-size:8.46667px;line-height:1.25;font-family:sans-serif;fill:#356697;fill-opacity:1;stroke:none;stroke-width:.264583"><path d="m3.1919348 2.5295656c.016933-.033867.042333-.084667.042333-.1100667.0-.1947334-.8043337-.4148668-1.3208005-.4148668-.91440039.0-1.49860063.6096002-1.49860063 1.3800672.0.4910669.24553344.7874003.49953354.9567337.55880019.3725335 1.38853389.3725335 1.38853389.8636003.0.3048002-.2370668.4233336-.5164669.4233336-.5249335.0-1.17686711-.3725335-1.21073379-.3725335-.0338667.0-.0508.033867-.0677334.0762L.3217337 5.8146336c-.008467.033867-.0423333.084667-.0423333.1100667.0.2286001.96520035.5503336 1.59173395.5503336.897467.0 1.4478006-.5842003 1.4478006-1.3631339.0-.4910669-.2370668-.8128003-.5672669-1.0329338-.60113365-.3979335-1.36313395-.3640668-1.36313395-.821267.0-.2878667.2370668-.4064001.5588003-.4064001.5418668.0.9567337.2201334.9821337.2201334.00847.0.0508-.033867.067733-.0762z" style="font-style:normal;font-variant:normal;font-weight:400;font-stretch:normal;font-size:8.46667px;font-family:itc officina sans std;-inkscape-font-specification:'ITC Officina Sans Std';fill:#356697;fill-opacity:1;stroke-width:.264583" id="path837"/><path d="m7.2728587 6.1787004c.042333-.016933.0762-.042333.0762-.0762.0-.1693334-.2201334-.2794001-.2201334-1.1006671V3.367766c0-.8805337-.3979335-1.3631339-1.4562673-1.3631339-.6519336.0-1.4901339.2032001-1.4901339.3979335.0.033867.00847.067733.0254.1016l.1693334.5164669c.00847.033867.042333.084667.084667.084667.1100667.0.5757336-.2540001 1.0498671-.2540001.5334002.0.6011336.2455334.6011336.6265336v.2624667c-.668867.0-2.2098009.0-2.2098009 1.4308673.0.795867.4910669 1.3038672 1.2700005 1.3038672.6350003.0.9313337-.3386668 1.1006671-.5080002.042333.2116667.1693334.5080002.2455334.5080002.033867.0.0762-.0254.1100668-.033867zM6.1129249 5.3659001c-.1016001.1016-.3217335.3217334-.6350003.3217334-.3217334.0-.5588002-.2455334-.5588002-.5757335.0-.745067.9821337-.6773336 1.1938005-.6773336z" style="font-style:normal;font-variant:normal;font-weight:400;font-stretch:normal;font-size:8.46667px;font-family:itc officina sans std;-inkscape-font-specification:'ITC Officina Sans Std';fill:#356697;fill-opacity:1;stroke-width:.264583" id="path839"/><path d="m9.9398509 5.4759668c-.00847-.033867-.033867-.0508-.067733-.0508-.0508.0-.1608667.0762-.3302001.0762-.2370667.0-.2370667-.2370668-.2370667-.5080002V.37903143c0-.14393339-.016933-.17780007-.084667-.17780007-.016933.0-.093133.0254-.1185334.0254L8.3904503.37056476c-.1016001.0254-.1608667.0254-.1608667.15240006V4.8409665c0 .7789337.0 1.6340674 1.0414004 1.6340674.4064001.0.855134-.1185334.855134-.2370668.0-.0254-.0085-.0254-.01693-.067733z" style="font-style:normal;font-variant:normal;font-weight:400;font-stretch:normal;font-size:8.46667px;font-family:itc officina sans std;-inkscape-font-specification:'ITC Officina Sans Std';fill:#356697;fill-opacity:1;stroke-width:.264583" id="path841"/><path d="m13.851448 6.1787004c.04233-.016933.0762-.042333.0762-.0762.0-.1693334-.220133-.2794001-.220133-1.1006671V3.367766c0-.8805337-.397934-1.3631339-1.456267-1.3631339-.651934.0-1.490134.2032001-1.490134.3979335.0.033867.0085.067733.0254.1016l.169333.5164669c.0085.033867.04233.084667.08467.084667.110067.0.575733-.2540001 1.049867-.2540001.5334.0.601134.2455334.601134.6265336v.2624667c-.668867.0-2.209801.0-2.209801 1.4308673.0.795867.491067 1.3038672 1.27 1.3038672.635.0.931334-.3386668 1.100667-.5080002.04233.2116667.169334.5080002.245534.5080002.03387.0.0762-.0254.110066-.033867zm-1.159933-.8128003c-.1016.1016-.321734.3217334-.635001.3217334-.321733.0-.5588-.2455334-.5588-.5757335.0-.745067.982134-.6773336 1.193801-.6773336z" style="font-style:normal;font-variant:normal;font-weight:400;font-stretch:normal;font-size:8.46667px;font-family:itc officina sans std;-inkscape-font-specification:'ITC Officina Sans Std';fill:#356697;fill-opacity:1;stroke-width:.264583" id="path843"/><path d="m18.211775 3.3423659c0-.7366003-.2032-1.3377338-1.100667-1.3377338-.601133.0-.9398.2963334-1.1684.4826002V.37903143c0-.14393339-.01693-.17780007-.08467-.17780007-.01693.0-.09313.0254-.118533.0254l-.711201.14393339c-.1016.0254-.160866.0254-.160866.15240006V6.2125671c0 .093133.01693.1185334.118533.1185334h.8382c.1016.0.118534-.0254.118534-.1185334V3.2492326c.110066-.1016001.364067-.3556002.719667-.3556002.4318.0.474133.3894669.474133.7112003v2.6077344c0 .093133.01693.1185334.118534.1185334h.8382c.1016.0.118533-.0254.118533-.1185334z" style="font-style:normal;font-variant:normal;font-weight:400;font-stretch:normal;font-size:8.46667px;font-family:itc officina sans std;-inkscape-font-specification:'ITC Officina Sans Std';fill:#356697;fill-opacity:1;stroke-width:.264583" id="path845"/><path d="m24.502497 2.5295656c.01693-.033867.04233-.084667.04233-.1100667.0-.1947334-.804333-.4148668-1.3208-.4148668-.914401.0-1.498601.6096002-1.498601 1.3800672.0.4910669.245534.7874003.499534.9567337.5588.3725335 1.388534.3725335 1.388534.8636003.0.3048002-.237067.4233336-.516467.4233336-.524934.0-1.176867-.3725335-1.210734-.3725335-.03387.0-.0508.033867-.06773.0762l-.186267.4826002c-.0085.033867-.04233.084667-.04233.1100667.0.2286001.965201.5503336 1.591734.5503336.897467.0 1.447801-.5842003 1.447801-1.3631339.0-.4910669-.237067-.8128003-.567267-1.0329338-.601133-.3979335-1.363134-.3640668-1.363134-.821267.0-.2878667.237067-.4064001.5588-.4064001.541867.0.956734.2201334.982134.2201334.0085.0.0508-.033867.06773-.0762z" style="font-style:normal;font-variant:normal;font-weight:400;font-stretch:normal;font-size:8.46667px;font-family:itc officina sans std;-inkscape-font-specification:'ITC Officina Sans Std';fill:#356697;fill-opacity:1;stroke-width:.264583" id="path847"/><path d="m28.871286 3.3423659c0-.7366003-.2032-1.3377338-1.100667-1.3377338-.601134.0-.939801.2963334-1.168401.4826002V.37903143c0-.14393339-.01693-.17780007-.08467-.17780007-.01693.0-.09313.0254-.118534.0254l-.7112.14393339c-.1016.0254-.160867.0254-.160867.15240006V6.2125671c0 .093133.01693.1185334.118534.1185334h.8382c.1016.0.118533-.0254.118533-.1185334V3.2492326c.110067-.1016001.364067-.3556002.719667-.3556002.4318.0.474134.3894669.474134.7112003v2.6077344c0 .093133.01693.1185334.118533.1185334h.838201c.1016.0.118533-.0254.118533-.1185334z" style="font-style:normal;font-variant:normal;font-weight:400;font-stretch:normal;font-size:8.46667px;font-family:itc officina sans std;-inkscape-font-specification:'ITC Officina Sans Std';fill:#356697;fill-opacity:1;stroke-width:.264583" id="path849"/><path d="m32.986078 5.3743667c-.01693-.033867-.0508-.067733-.09313-.067733-.118533.0-.465667.2794001-1.075267.2794001-.795867.0-.931334-.5842002-.931334-1.0583338h2.277535c.160866.0.194733-.0508.194733-.2116667.0-1.0244671-.254-2.3114009-1.693334-2.3114009-1.134534.0-1.854201.9313337-1.854201 2.2775342.0 1.5578673.778934 2.1928676 1.896534 2.1928676.668867.0 1.515534-.2794002 1.515534-.4995336.0-.033867-.0085-.067733-.0254-.093133zM30.886344 3.7402994c.0254-.2370667.05927-.948267.719667-.948267.5842.0.6096.6011336.6096.948267z" style="font-style:normal;font-variant:normal;font-weight:400;font-stretch:normal;font-size:8.46667px;font-family:itc officina sans std;-inkscape-font-specification:'ITC Officina Sans Std';fill:#356697;fill-opacity:1;stroke-width:.264583" id="path851"/><path d="m35.678463 2.2670988c0-.093133-.01693-.1185333-.118534-.1185333h-1.608667c-.1016.0-.118533.0254-.118533.1185333v.5503336c0 .093133.01693.1185334.118533.1185334h.651934v3.2766013c0 .093133.01693.1185334.118533.1185334h.8382c.101601.0.118534-.0254.118534-.1185334zm.1524-1.3716005c0-.38946682-.313267-.69426694-.694267-.69426694-.389467.0-.702734.30480012-.702734.69426694.0.3894668.313267.7027336.702734.7027336.381.0.694267-.3132668.694267-.7027336z" style="font-style:normal;font-variant:normal;font-weight:400;font-stretch:normal;font-size:8.46667px;font-family:itc officina sans std;-inkscape-font-specification:'ITC Officina Sans Std';fill:#356697;fill-opacity:1;stroke-width:.264583" id="path853"/><path d="M39.005851 3.9858329 40.377452 2.648099c.04233-.042333.0762-.0762.0762-.1100667.0-.033867-.0085-.059267-.04233-.093133L39.987985 2.0977654c-.06773-.0508-.1016-.093133-.1524-.093133-.0254.0-.09313.0508-.118533.084667l-1.625601 1.642534V.37903143c0-.14393339-.01693-.17780007-.06773-.17780007-.0254.0-.110067.0169333-.135467.0254l-.7112.14393339c-.1016.0169333-.160867.0338667-.160867.15240006V6.2125671c0 .093133.01693.1185334.118533.1185334h.838201c.1016.0.118533-.0254.118533-.1185334V4.366833h.01693l1.549401 2.0235342c.0254.033867.06773.084667.1016.084667s.06773-.016933.1016-.033867l.719667-.3979335c.03387-.016933.04233-.042333.04233-.0762s-.03387-.084667-.0762-.1270001z" style="font-style:normal;font-variant:normal;font-weight:400;font-stretch:normal;font-size:8.46667px;font-family:itc officina sans std;-inkscape-font-specification:'ITC Officina Sans Std';fill:#356697;fill-opacity:1;stroke-width:.264583" id="path855"/><path d="m44.712381 3.3423659c0-.7366003-.2032-1.3377338-1.100667-1.3377338-.601134.0-.939801.2963334-1.168401.4826002V.37903143c0-.14393339-.01693-.17780007-.08467-.17780007-.01693.0-.09313.0254-.118534.0254l-.7112.14393339c-.1016.0254-.160867.0254-.160867.15240006V6.2125671c0 .093133.01693.1185334.118534.1185334h.8382c.1016.0.118533-.0254.118533-.1185334V3.2492326C42.55338 3.1476325 42.80738 2.8936324 43.16298 2.8936324c.4318.0.474134.3894669.474134.7112003v2.6077344c0 .093133.01693.1185334.118533.1185334h.838201c.1016.0.118533-.0254.118533-.1185334z" style="font-style:normal;font-variant:normal;font-weight:400;font-stretch:normal;font-size:8.46667px;font-family:itc officina sans std;-inkscape-font-specification:'ITC Officina Sans Std';fill:#356697;fill-opacity:1;stroke-width:.264583" id="path857"/></g></g></svg>